<svg width="512" height="512" viewBox="0 0 512 512" fill="none" xmlns="http://www.w3.org/2000/svg">
  <rect width="512" height="512" rx="108" fill="#070201"/>
  <circle cx="256" cy="256" r="178" fill="#130705" stroke="#D9A24A" stroke-width="12"/>
  <circle cx="256" cy="256" r="142" stroke="#7C1D18" stroke-width="8"/>
  <path d="M256 360C224 321 158 285 158 221C158 185 184 160 219 160C240 160 251 170 256 184C261 170 272 160 293 160C328 160 354 185 354 221C354 285 288 321 256 360Z" fill="#C83A2B"/>
  <path d="M144 254C199 210 313 208 368 254" stroke="#F5D78A" stroke-width="12" stroke-linecap="round"/>
  <path d="M119 341C187 386 322 386 393 341" stroke="#8F1E18" stroke-width="10" stroke-linecap="round"/>
  <path d="M256 84V132" stroke="#F5D78A" stroke-width="12" stroke-linecap="round"/>
  <path d="M256 380V428" stroke="#F5D78A" stroke-width="12" stroke-linecap="round"/>
  <path d="M84 256H132" stroke="#F5D78A" stroke-width="12" stroke-linecap="round"/>
  <path d="M380 256H428" stroke="#F5D78A" stroke-width="12" stroke-linecap="round"/>
</svg>
